<?xml version="1.0" encoding="UTF-8" standalone="no"?>
<!-- Created with Inkscape (http://www.inkscape.org/) -->

<svg
   width="500"
   height="500"
   viewBox="0 0 132.29166 132.29167"
   version="1.1"
   id="svg5"
   inkscape:version="1.2.1 (9c6d41e410, 2022-07-14)"
   sodipodi:docname="hmath.logo.svg"
   xmlns:inkscape="http://www.inkscape.org/namespaces/inkscape"
   xmlns:sodipodi="http://sodipodi.sourceforge.net/DTD/sodipodi-0.dtd"
   xmlns:xlink="http://www.w3.org/1999/xlink"
   xmlns="http://www.w3.org/2000/svg"
   xmlns:svg="http://www.w3.org/2000/svg">
  <sodipodi:namedview
     id="namedview7"
     pagecolor="#505050"
     bordercolor="#eeeeee"
     borderopacity="1"
     inkscape:showpageshadow="0"
     inkscape:pageopacity="0"
     inkscape:pagecheckerboard="0"
     inkscape:deskcolor="#505050"
     inkscape:document-units="px"
     showgrid="false"
     inkscape:zoom="1.4324916"
     inkscape:cx="479.58396"
     inkscape:cy="273.30003"
     inkscape:window-width="1920"
     inkscape:window-height="991"
     inkscape:window-x="-9"
     inkscape:window-y="-9"
     inkscape:window-maximized="1"
     inkscape:current-layer="layer1" />
  <defs
     id="defs2">
    <linearGradient
       inkscape:collect="never"
       id="linearGradient10468">
      <stop
         style="stop-color:#ffff00;stop-opacity:1;"
         offset="0"
         id="stop10464" />
      <stop
         style="stop-color:#ffff00;stop-opacity:0;"
         offset="1"
         id="stop10466" />
    </linearGradient>
    <linearGradient
       id="hmath_logo">
      <stop
         style="stop-color:#0000ff;stop-opacity:1;"
         offset="0"
         id="stop4892" />
      <stop
         style="stop-color:#0000ff;stop-opacity:1;"
         offset="0.5"
         id="stop4894" />
      <stop
         style="stop-color:#ffff00;stop-opacity:1;"
         offset="0.5"
         id="stop4896" />
      <stop
         style="stop-color:#ffff00;stop-opacity:1;"
         offset="0.99748111"
         id="stop4898" />
    </linearGradient>
    <linearGradient
       id="hmath_logo-9">
      <stop
         style="stop-color:#0000ff;stop-opacity:1;"
         offset="0"
         id="stop2207" />
      <stop
         style="stop-color:#0000ff;stop-opacity:1;"
         offset="0.5"
         id="stop2215" />
      <stop
         style="stop-color:#ffff00;stop-opacity:1;"
         offset="0.5"
         id="stop2213" />
      <stop
         style="stop-color:#ffff00;stop-opacity:1;"
         offset="0.99748111"
         id="stop2205" />
    </linearGradient>
    <linearGradient
       xlink:href="#hmath_logo"
       id="linearGradient10470"
       x1="117.94579"
       y1="-7.1875648"
       x2="152.95435"
       y2="-21.239975"
       gradientUnits="userSpaceOnUse"
       gradientTransform="rotate(-145.90835,-3.0496797e-7,-3.5961453e-6)" />
  </defs>
  <g
     inkscape:label="Layer 1"
     inkscape:groupmode="layer"
     id="layer1">
    <g
       aria-label="3"
       transform="scale(0.88329387,1.132126)"
       id="text113"
       style="font-size:159.756px;font-family:'BIZ UDMincho';-inkscape-font-specification:'BIZ UDMincho';fill:#ffff00;stroke-width:255.466">
      <path
         d="M 2.3886561e-5,84.635944 14.041078,82.763804 q 2.418182,11.934896 8.190615,17.239296 5.85044,5.22639 14.197066,5.22639 9.906744,0 16.693254,-6.864515 6.864516,-6.864515 6.864516,-17.005277 0,-9.672726 -6.318475,-15.913195 -6.318474,-6.318474 -16.069207,-6.318474 -3.978298,0 -9.906744,1.560117 L 29.252221,48.36322 q 1.404105,0.156012 2.262169,0.156012 8.970674,0 16.147213,-4.680351 7.176539,-4.680352 7.176539,-14.431084 0,-7.72258 -5.226393,-12.792961 -5.226392,-5.070381 -13.495013,-5.070381 -8.190615,0 -13.651025,5.148387 -5.46041,5.148387 -7.020527,15.44516 L 1.4041293,29.641814 Q 3.9783226,15.522754 13.105008,7.8001743 22.231693,-4.1151047e-4 35.804713,-4.1151047e-4 q 9.360703,0 17.239294,4.05630461047 7.878592,3.9782987 12.012902,10.9208199 4.212317,6.942522 4.212317,14.743107 0,7.410557 -3.978299,13.495014 -3.978299,6.084457 -11.778885,9.672726 10.140762,2.340176 15.757184,9.750732 5.616421,7.332551 5.616421,18.409383 0,14.977124 -10.92082,25.429905 -10.92082,10.37478 -27.614073,10.37478 -15.055131,0 -25.039881,-8.97067 Q 1.4041293,98.911016 2.3886561e-5,84.635944 Z"
         style="font-family:Arial;-inkscape-font-specification:Arial"
         id="path1276" />
    </g>
    <circle
       style="mix-blend-mode:darken;fill:url(#linearGradient10470);fill-opacity:1;fill-rule:evenodd;stroke-width:14.315"
       id="path1678"
       transform="rotate(-147.06892)"
       r="13.229166"
       cy="-63.973297"
       cx="-120.24378" />
    <g
       aria-label="14"
       transform="scale(0.70831061,1.41181)"
       id="text12028"
       style="font-size:78.2221px;font-family:Arial;-inkscape-font-specification:Arial;fill:#ffff00;stroke-width:125.086">
      <path
         d="m 132.68738,93.703568 h -6.87499 V 49.894609 q -2.48263,2.368051 -6.53124,4.736103 -4.01041,2.368052 -7.21874,3.552078 v -6.645823 q 5.76736,-2.711801 10.08332,-6.569434 4.31597,-3.857633 6.1111,-7.486099 h 4.43055 z"
         style="fill:#0000ff"
         id="path1271" />
      <path
         d="M 172.33315,93.703568 V 80.297339 H 148.04152 V 73.995265 L 173.59357,37.7106 h 5.61457 v 36.284665 h 7.56249 v 6.302074 h -7.56249 v 13.406229 z m 0,-19.708303 V 48.748777 l -17.53122,25.246488 z"
         id="path1273" />
    </g>
    <g
       aria-label="π"
       transform="scale(0.96771067,1.0333667)"
       id="text12288"
       style="font-size:193.352px;font-family:Arial;-inkscape-font-specification:Arial;mix-blend-mode:difference;fill:#ff0000;fill-opacity:0.5;stroke-width:309.19">
      <path
         d="M -2.3841858e-7,25.773959 Q 11.140398,16.993814 20.959055,13.595049 30.588891,10.290693 42.956622,10.290693 h 57.023736 q 18.504392,0 28.228642,-10.290707141202 L 136.70591,13.595049 q -8.49691,8.024863 -20.95906,10.385117 -6.89194,1.321742 -17.937926,1.416153 -11.045988,34.270887 -16.710598,59.95045 -2.077023,9.252196 -2.077023,14.255934 0,11.990087 10.479527,11.990087 17.37147,0 34.64853,-27.284532 l 10.85717,13.217422 q -21.71434,30.49448 -47.299493,30.49448 -10.101887,0 -16.521778,-5.47579 -7.930453,-6.79753 -7.930453,-19.82613 0,-9.441017 5.003738,-28.7951 5.5702,-21.525516 13.500653,-48.526821 H 55.701993 Q 40.785188,70.146734 23.413719,124.33816 H 4.4372772 Q 24.357821,73.073449 39.463446,25.962779 21.714336,26.812471 8.3080937,39.085792 Z"
         style="font-family:'BIZ UDGothic';-inkscape-font-specification:'BIZ UDGothic'"
         id="path1241" />
    </g>
  </g>
</svg>
