<?xml version="1.0" encoding="UTF-8" standalone="no"?>
<svg
   version="1.1"
   width="500"
   height="500"
   viewBox="0 0 500 500"
   xml:space="preserve"
   id="svg324"
   sodipodi:docname="hmath.logo.svg"
   inkscape:version="1.2.1 (9c6d41e410, 2022-07-14)"
   xmlns:inkscape="http://www.inkscape.org/namespaces/inkscape"
   xmlns:sodipodi="http://sodipodi.sourceforge.net/DTD/sodipodi-0.dtd"
   xmlns="http://www.w3.org/2000/svg"
   xmlns:svg="http://www.w3.org/2000/svg"><sodipodi:namedview
   id="namedview326"
   pagecolor="#505050"
   bordercolor="#eeeeee"
   borderopacity="1"
   inkscape:showpageshadow="0"
   inkscape:pageopacity="0"
   inkscape:pagecheckerboard="0"
   inkscape:deskcolor="#505050"
   showgrid="false"
   inkscape:zoom="1.0960155"
   inkscape:cx="447.07397"
   inkscape:cy="171.98662"
   inkscape:window-width="1920"
   inkscape:window-height="991"
   inkscape:window-x="-9"
   inkscape:window-y="-9"
   inkscape:window-maximized="1"
   inkscape:current-layer="text306" />
<desc
   id="desc292">Created with Fabric.js 4.6.0</desc>
<defs
   id="defs294">



		
		
		
		
</defs>
<g
   transform="matrix(1.77,0,0,1.77,187.1311,186.2728)"
   id="a8zIw86RPFiyLX0Slvqug"
   clip-path="url(#CLIPPATH_13)">
<clipPath
   id="CLIPPATH_13">
	<rect
   transform="matrix(0.5,0,0,0.5,136.87,76.18)"
   id="clip-1"
   x="-720"
   y="-540"
   rx="0"
   ry="0"
   width="1440"
   height="1080" />
</clipPath>
<path
   style="opacity:1;fill:#5654ff;fill-rule:nonzero;stroke:none;stroke-width:1;stroke-linecap:butt;stroke-linejoin:miter;stroke-miterlimit:10;stroke-dasharray:none;stroke-dashoffset:0"
   vector-effect="non-scaling-stroke"
   transform="translate(-103.13,-103.82)"
   d="m 137.58069,-0.13319 c 11.47241,-0.05254 23.43025,0.81896 34.95521,2.73737 18.21574,3.05264 33.554,16.69943 33.554,34.88014 v 63.88021 c 0,18.72118 -14.90037,34.07945 -33.55399,34.07945 H 105.528 c -22.75217,0 -41.91122,19.54189 -41.91122,41.68603 V 207.7815 H 40.54936 c -19.49685,0 -30.88669,-14.14223 -35.65581,-34.00439 -6.43306,-26.67305 -6.16032,-42.63683 0,-68.18391 5.3296,-22.28426 22.41437,-34.00439 41.91123,-34.00439 h 25.17176 67.08297 V 63.06645 H 71.97656 V 37.49436 c 0,-19.36674 5.15444,-29.86331 33.55398,-34.88014 9.63083,-1.70597 20.5828,-2.68407 32.05272,-2.73737 z M 88.71346,33.26568 c 0,7.04858 5.63487,12.74602 12.58837,12.74602 6.92849,0 12.58838,-5.69993 12.58838,-12.74602 0,-7.0711 -5.65739,-12.82358 -12.58838,-12.82358 -6.9535,0 -12.58837,5.75248 -12.58837,12.82358 z"
   stroke-linecap="round"
   id="path298" />
</g><g
   transform="matrix(19.7355,0,0,19.7355,564.3966,199.6363)"
   id="BLGuJ970NAZdT3Q8dqF4Q"
   clip-path="url(#CLIPPATH_14)">
<clipPath
   id="CLIPPATH_14">
	<rect
   transform="matrix(0.04,0,0,0.04,3.3,6.15)"
   id="rect301"
   x="-720"
   y="-540"
   rx="0"
   ry="0"
   width="1440"
   height="1080" />
</clipPath>
		
<g
   aria-label="π"
   transform="matrix(0.97996327,0,0,1.0204483,4.8438553e-5,1.0680269e-7)"
   id="text306"
   style="font-size:43.0902px;line-height:1;font-family:Serif;white-space:pre;stroke-width:1.07726;stroke-miterlimit:10"><g
     aria-label="π"
     transform="matrix(0.05137226,0,0,0.04997747,-29.182816,-9.9128917)"
     id="text1429"
     style="font-size:663.334px;font-family:Serif;-inkscape-font-specification:Serif;stroke-width:1060.74"><path
       d="M 50.972746,143.93016 Q 65.871849,113.16027 80.123165,99.232846 103.4435,75.588617 145.87356,75.588617 h 226.72548 q 49.8796,0 63.15924,-25.911483 l 17.16636,19.109719 q -24.61591,55.385797 -86.15569,55.385797 h -30.44599 q -32.38935,129.88131 -32.38935,207.29187 0,34.33272 9.7168,49.87961 9.39292,15.87078 31.09378,15.87078 31.09378,0 63.15924,-68.66543 l 21.05309,19.7575 q -14.57521,44.69731 -41.45838,71.25658 -27.85484,27.53096 -58.62473,27.53096 -39.51501,0 -60.89199,-36.27608 -14.57521,-24.9398 -14.57521,-61.86367 0,-64.45481 51.49908,-224.78212 h -90.6902 Q 167.89832,301.01853 121.90543,433.81488 H 50.324959 Q 94.374481,373.89457 126.43994,295.51234 153.32311,230.40973 183.7691,124.17265 h -37.89554 q -34.33272,0 -52.794653,11.98406 -12.307955,8.09734 -23.644229,25.2637 z"
       style="font-family:'BIZ UDMincho';-inkscape-font-specification:'BIZ UDMincho'"
       id="path2249" /></g></g></g><g
   transform="matrix(1.77,0,0,1.77,314.6242,314.5978)"
   id="RPARvay0xKzkEyoElEIbp"
   clip-path="url(#CLIPPATH_15)">
<clipPath
   id="CLIPPATH_15">
	<rect
   transform="matrix(0.5,0,0,0.5,64.84,3.68)"
   id="rect309"
   x="-720"
   y="-540"
   rx="0"
   ry="0"
   width="1440"
   height="1080" />
</clipPath>
<path
   style="opacity:1;fill:#cac9ff;fill-rule:nonzero;stroke:none;stroke-width:1;stroke-linecap:butt;stroke-linejoin:miter;stroke-miterlimit:10;stroke-dasharray:none;stroke-dashoffset:0"
   vector-effect="non-scaling-stroke"
   transform="translate(-175.16,-176.32)"
   d="m 214.47463,71.57878 h 25.17175 c 19.53188,0 28.73483,14.59511 33.55399,34.00439 6.70579,26.94829 7.00354,47.16826 0,68.18392 -6.78086,20.40512 -14.05714,34.00439 -33.55399,34.00439 h -33.55399 -67.0079 v 8.52237 h 67.0079 v 25.57209 c 0,19.34672 -16.6644,29.19023 -33.55399,34.07945 -25.39694,7.37387 -45.77205,6.24539 -67.0079,0 C 87.78768,270.7409 71.97651,260.04664 71.97651,241.86594 v -63.88019 c 0,-18.37088 15.19813,-34.07944 33.55399,-34.07944 h 67.0079 c 22.3293,0 41.91122,-19.4393 41.91122,-42.53676 V 71.5688 Z m -50.29596,174.52581 c 0,7.07111 5.65739,12.82358 12.58837,12.82358 6.95352,0 12.58837,-5.75246 12.58837,-12.82358 0,-7.0486 -5.63487,-12.746 -12.58837,-12.74602 -6.92849,0 -12.58837,5.69993 -12.58837,12.74602 z"
   stroke-linecap="round"
   id="path312" />
</g><g
   transform="matrix(1.77,0,0,1.77,288.1627,667.9783)"
   id="eqkVUIA2GiIGSN0w1Ty0i"
   clip-path="url(#CLIPPATH_16)">
<clipPath
   id="CLIPPATH_16">
	<rect
   transform="matrix(0.5,0,0,0.5,79.79,-195.97)"
   id="rect315"
   x="-720"
   y="-540"
   rx="0"
   ry="0"
   width="1440"
   height="1080" />
</clipPath>
<path
   style="opacity:1;fill:#000000;fill-opacity:0;fill-rule:evenodd;stroke:none;stroke-width:1;stroke-linecap:square;stroke-linejoin:miter;stroke-miterlimit:10;stroke-dasharray:none;stroke-dashoffset:0"
   vector-effect="non-scaling-stroke"
   transform="translate(-160.21,-375.97)"
   d="m -95.93701,311.33813 h 512.2861 v 129.27178 h -512.2861 z"
   stroke-linecap="round"
   id="path318" />
</g>
</svg>
