<svg version="1.1" viewBox="0.0 0.0 386.00787401574803 549.7244094488188" fill="none" stroke="none" stroke-linecap="square" stroke-miterlimit="10" xmlns:xlink="http://www.w3.org/1999/xlink" xmlns="http://www.w3.org/2000/svg"><clipPath id="p.0"><path d="m0 0l386.00787 0l0 549.7244l-386.00787 0l0 -549.7244z" clip-rule="nonzero"/></clipPath><g clip-path="url(#p.0)"><path fill="#000000" fill-opacity="0.0" d="m0 0l386.00787 0l0 549.7244l-386.00787 0z" fill-rule="evenodd"/><path fill="#000000" fill-opacity="0.0" d="m-77.53674 -65.17618l748.22046 0l0 377.95276l-748.22046 0z" fill-rule="evenodd"/><path fill="#000000" d="m383.79138 66.4957l0 12.5l-14.578125 0q-37.5 0 -37.5 41.671875l0 270.82812q0 41.65625 37.5 41.65625l14.578125 0l0 12.5l-152.07812 0l0 -12.5l14.578125 0q37.5 0 37.5 -41.65625l0 -279.17188q0 -33.328125 -33.328125 -33.328125l-118.75 0q-33.328125 0 -33.328125 33.328125l0 279.17188q0 41.65625 37.5 41.65625l14.578125 0l0 12.5l-152.07812 0l0 -12.5l14.578125 0q37.5 0 37.5 -41.65625l0 -270.82812q0 -41.671875 -37.5 -41.671875l-14.578125 0l0 -12.5l385.40625 0z" fill-rule="nonzero"/><path fill="#000000" fill-opacity="0.0" d="m119.80585 -60.328407l748.22046 0l0 377.95276l-748.22046 0z" fill-rule="evenodd"/><path fill="#000000" d="m201.44647 9.734093q-5.203125 5.203125 -9.375 13.015625q4.171875 7.8125 9.375 13.03125q6.765625 6.765625 16.671875 6.765625q8.84375 0 14.578125 -5.734375q5.203125 -5.203125 5.203125 -14.0625q0 -8.84375 -5.203125 -14.0625q-5.734375 -5.71875 -14.578125 -5.71875q-9.90625 0 -16.671875 6.765625zm-14.578125 13.015625q-4.171875 -7.8125 -9.375 -13.015625q-6.765625 -6.765625 -16.671875 -6.765625q-8.84375 0 -14.578125 5.71875q-5.203125 5.21875 -5.203125 14.0625q0 8.859375 5.203125 14.0625q5.734375 5.734375 14.578125 5.734375q9.90625 0 16.671875 -6.765625q5.203125 -5.21875 9.375 -13.03125zm2.609375 -5.203125q3.109375 -5.734375 7.796875 -10.421875q8.859375 -8.84375 20.84375 -8.84375q10.9375 0 18.21875 7.28125q6.78125 6.78125 6.78125 17.1875q0 10.421875 -6.78125 17.1875q-7.28125 7.296875 -18.21875 7.296875q-11.984375 0 -20.84375 -8.859375q-4.6875 -4.6875 -7.796875 -10.40625q-3.125 5.71875 -7.8125 10.40625q-8.859375 8.859375 -20.84375 8.859375q-10.9375 0 -18.21875 -7.296875q-6.78125 -6.765625 -6.78125 -17.1875q0 -10.40625 6.78125 -17.1875q7.28125 -7.28125 18.21875 -7.28125q11.984375 0 20.84375 8.84375q4.6875 4.6875 7.8125 10.421875z" fill-rule="nonzero"/><path fill="#000000" fill-opacity="0.0" d="m88.07608 418.4406l748.22046 0l0 377.95276l-748.22046 0z" fill-rule="evenodd"/><path fill="#000000" d="m95.247955 547.8781l0 -3.125l2.59375 0q2.609375 0 3.65625 -1.046875q1.03125 -1.03125 1.03125 -3.125l0 -44.78125q0 -1.5625 -0.515625 -2.609375q-0.515625 -0.515625 -2.078125 -0.515625l-4.171875 0l0 -3.125l3.640625 0q2.609375 0 4.6875 -0.53125q2.609375 -0.515625 4.6875 -2.078125l1.046875 0l0 11.984375q4.6875 -5.21875 9.375 -7.8125q4.6875 -2.609375 9.890625 -2.609375q8.859375 0 13.03125 4.6875q4.15625 4.6875 4.15625 14.0625l0 33.328125q0 2.09375 1.046875 3.125q1.5625 1.046875 3.640625 1.046875l2.609375 0l0 3.125l-21.875 0l0 -3.125l2.609375 0q2.59375 0 3.640625 -1.046875q1.046875 -1.03125 1.046875 -3.125l0 -34.890625q0 -6.25 -2.609375 -9.890625q-2.609375 -3.125 -7.8125 -3.125q-4.6875 0 -9.890625 3.125q-4.6875 2.59375 -8.859375 8.84375l0 35.9375q0 2.09375 1.046875 3.125q1.5625 1.046875 3.640625 1.046875l2.609375 0l0 3.125l-21.875 0zm66.66406 -56.765625l0 -4.6875l57.8125 0l0 4.6875l-57.8125 0zm0 26.5625l0 -4.6875l57.8125 0l0 4.6875l-57.8125 0zm108.32031 -44.796875q-4.15625 -10.9375 -12.5 -10.9375q-7.8125 0 -12.5 10.9375q-4.6875 10.421875 -4.6875 30.203125q0 20.3125 4.6875 30.734375q5.21875 10.9375 12.5 10.9375q7.8125 0 11.984375 -10.9375q4.6875 -11.453125 4.6875 -30.734375q0 -18.75 -4.171875 -30.203125zm6.25 63.546875q-7.8125 12.5 -18.75 12.5q-11.453125 0 -19.265625 -11.984375q-7.8125 -11.984375 -7.8125 -33.859375q0 -20.828125 7.296875 -32.796875q7.8125 -12.5 19.78125 -12.5q11.46875 0 18.75 11.96875q7.8125 12.5 7.8125 33.328125q0 20.84375 -7.8125 33.34375z" fill-rule="nonzero"/></g></svg>